# xmcd
#
# Track frame offsets:
#	150
#	22593
#	39270
#	57701
#	77459
#	101672
#	126377
#	140144
#	160055
#	188850
#	210040
#
# Disc length: 3009 seconds
#
# Revision: 0
# Processed by: cddbd v1.5.2PL0 Copyright (c) Steve Scherf et al.
# Submitted via: dBpowerAMP V4.0
#
DISCID=890bbf0b
DTITLE=Phantom X - Storm Riders
DYEAR=2006
DGENRE=Power Metal
TTITLE0=Storm Riders (Chapter 5)
TTITLE1=Join The Revolution
TTITLE2=Everspell (Chapter 6)
TTITLE3=Texas Death Squad
TTITLE4=A Dark Divinty
TTITLE5=Day Of The First Dawn
TTITLE6=Ancient Anthem
TTITLE7=Black Sails
TTITLE8=Dance Among The Graves
TTITLE9=13th Hour (Chapter 7)
TTITLE10=Road Killer
EXTD=
EXTT0=
EXTT1=
EXTT2=
EXTT3=
EXTT4=
EXTT5=
EXTT6=
EXTT7=
EXTT8=
EXTT9=
EXTT10=
PLAYORDER=
